<?xml version="1.0" encoding="UTF-8"?>
<svg version="1.1" xmlns="http://www.w3.org/2000/svg" width="541" height="461">
<path d="M0 0 C2.10683859 -0.00984748 4.21366157 -0.02425696 6.32043457 -0.0435791 C18.7595555 -0.14347281 30.25635616 0.45036279 42.38677979 3.29754639 C43.4969043 3.53255859 44.60702881 3.7675708 45.75079346 4.00970459 C62.28948257 7.52522943 77.77510143 11.71371632 91.38677979 22.29754639 C91.38677979 22.95754639 91.38677979 23.61754639 91.38677979 24.29754639 C92.04677979 24.29754639 92.70677979 24.29754639 93.38677979 24.29754639 C93.38677979 24.95754639 93.38677979 25.61754639 93.38677979 26.29754639 C94.04677979 26.29754639 94.70677979 26.29754639 95.38677979 26.29754639 C105.00196564 37.39555609 107.28927456 49.94119433 106.38677979 64.29754639 C103.63701162 85.24705131 94.61944199 104.60025307 83.38677979 122.29754639 C82.80927979 123.2114917 82.23177979 124.12543701 81.63677979 125.06707764 C80.44942462 126.93767381 79.25689848 128.80500005 78.05865479 130.66864014 C76.52211417 133.08474255 75.04666909 135.5296207 73.57427979 137.98504639 C72.85240479 139.07817139 72.13052979 140.17129639 71.38677979 141.29754639 C70.72677979 141.29754639 70.06677979 141.29754639 69.38677979 141.29754639 C69.14185791 142.0052417 68.89693604 142.71293701 68.64459229 143.44207764 C67.21395693 146.68988646 65.41998582 149.16885071 63.26177979 151.98504639 C62.86072021 152.50977539 62.45966064 153.03450439 62.04644775 153.57513428 C55.93360264 161.54112396 49.60138022 169.2983259 43.06695557 176.92034912 C41.02036592 179.31636547 39.13750986 181.67145128 37.38677979 184.29754639 C36.72677979 184.29754639 36.06677979 184.29754639 35.38677979 184.29754639 C35.09802979 184.89567139 34.80927979 185.49379639 34.51177979 186.11004639 C33.38677979 188.29754639 33.38677979 188.29754639 31.38677979 191.29754639 C30.72677979 191.29754639 30.06677979 191.29754639 29.38677979 191.29754639 C29.04646729 192.10192139 29.04646729 192.10192139 28.69927979 192.92254639 C25.82451429 198.124503 21.55914803 202.13973187 17.38677979 206.29754639 C16.27940211 207.40452415 15.17223727 208.51171484 14.06524658 209.61907959 C5.17242432 218.51190186 -3.72039795 227.40472412 -12.61322021 236.29754639 C-8.73253645 235.04041846 -4.9546937 233.66306199 -1.19134521 232.09051514 C11.18874338 226.98273558 23.36256978 222.4337652 36.38677979 219.29754639 C37.25174072 219.05391357 38.11670166 218.81028076 39.00787354 218.55926514 C60.71576468 213.02883186 86.91245468 219.11775388 106.01177979 229.83270264 C108.2598107 231.21923486 110.37756869 232.58134524 112.38677979 234.29754639 C112.38677979 234.95754639 112.38677979 235.61754639 112.38677979 236.29754639 C113.37677979 236.62754639 114.36677979 236.95754639 115.38677979 237.29754639 C115.38677979 237.95754639 115.38677979 238.61754639 115.38677979 239.29754639 C116.04677979 239.29754639 116.70677979 239.29754639 117.38677979 239.29754639 C126.61452356 254.19930738 128.3100038 268.97535021 124.38165283 285.84124756 C122.37789572 293.40634845 118.63695005 299.78818368 114.38677979 306.29754639 C113.72677979 306.29754639 113.06677979 306.29754639 112.38677979 306.29754639 C112.38677979 306.95754639 112.38677979 307.61754639 112.38677979 308.29754639 C111.72677979 308.29754639 111.06677979 308.29754639 110.38677979 308.29754639 C110.05677979 309.28754639 109.72677979 310.27754639 109.38677979 311.29754639 C108.72677979 311.29754639 108.06677979 311.29754639 107.38677979 311.29754639 C107.38677979 311.95754639 107.38677979 312.61754639 107.38677979 313.29754639 C94.88163404 324.08909957 79.59209196 330.31440728 64.38677979 336.29754639 C60.13562552 337.9821466 55.88614391 339.67093681 51.63677979 341.36004639 C49.9912915 342.01070068 49.9912915 342.01070068 48.31256104 342.67449951 C42.16741983 345.1154031 42.16741983 345.1154031 36.18365479 347.91864014 C32.37147157 349.79811035 28.42976598 351.00674982 24.38677979 352.29754639 C22.29788841 352.99180756 20.20937361 353.68720241 18.12115479 354.38348389 C-9.05397941 363.33689362 -35.04189937 369.49759202 -63.80072021 369.61004639 C-64.98150146 369.61560547 -66.16228271 369.62116455 -67.37884521 369.62689209 C-75.28538097 369.56170997 -82.83402208 368.66924236 -90.61322021 367.29754639 C-91.49066895 367.16291992 -92.36811768 367.02829346 -93.27215576 366.8895874 C-106.22221107 364.89079623 -117.86002 358.46634653 -128.61322021 351.29754639 C-128.61322021 350.63754639 -128.61322021 349.97754639 -128.61322021 349.29754639 C-129.51040771 348.89535889 -129.51040771 348.89535889 -130.42572021 348.48504639 C-132.61169875 347.29837232 -134.02654615 346.20155526 -135.61322021 344.29754639 C-135.61322021 343.63754639 -135.61322021 342.97754639 -135.61322021 342.29754639 C-136.27322021 342.29754639 -136.93322021 342.29754639 -137.61322021 342.29754639 C-147.7022753 331.0394824 -152.15250683 315.60946169 -151.85931396 300.74285889 C-150.78270528 285.67033723 -144.99120412 271.29873346 -138.00775146 258.04364014 C-136.98689219 256.03337664 -136.05303018 253.97829126 -135.17181396 251.90301514 C-133.57902381 248.21844042 -131.77675178 244.69616469 -129.86322021 241.17254639 C-129.51904053 240.53309082 -129.17486084 239.89363525 -128.82025146 239.23480225 C-128.10863673 237.91339495 -127.39574302 236.59267563 -126.68157959 235.27264404 C-125.62975544 233.32811539 -124.58176624 231.38157166 -123.53509521 229.43426514 C-121.89710128 226.38727045 -120.25605913 223.34193226 -118.61322021 220.29754639 C-117.95322021 220.29754639 -117.29322021 220.29754639 -116.61322021 220.29754639 C-116.48947021 219.72004639 -116.36572021 219.14254639 -116.23822021 218.54754639 C-115.60673197 216.27418872 -114.72463831 214.37219349 -113.61322021 212.29754639 C-112.95322021 212.29754639 -112.29322021 212.29754639 -111.61322021 212.29754639 C-111.30384521 211.06004639 -111.30384521 211.06004639 -110.98822021 209.79754639 C-109.5092305 206.0328453 -107.62113216 203.48316232 -105.14447021 200.33270264 C-102.98843939 197.46716167 -101.31965797 194.44789301 -99.61322021 191.29754639 C-98.95322021 191.29754639 -98.29322021 191.29754639 -97.61322021 191.29754639 C-97.53974365 190.77676514 -97.46626709 190.25598389 -97.39056396 189.71942139 C-96.27878513 186.25558785 -94.24607951 183.49594538 -92.17572021 180.54754639 C-91.76773193 179.9455542 -91.35974365 179.34356201 -90.93939209 178.72332764 C-89.8861793 177.20793827 -88.75503979 175.74734298 -87.61322021 174.29754639 C-86.95322021 174.29754639 -86.29322021 174.29754639 -85.61322021 174.29754639 C-85.53974365 173.76000732 -85.46626709 173.22246826 -85.39056396 172.66864014 C-84.31648032 169.39241515 -82.30314263 167.01364411 -80.17572021 164.36004639 C-79.25885668 163.19353443 -78.34219551 162.02686339 -77.42572021 160.86004639 C-76.95650146 160.26707764 -76.48728271 159.67410889 -76.00384521 159.06317139 C-73.86684307 156.349899 -71.77352345 153.60365139 -69.67572021 150.86004639 C-65.56001692 145.49656246 -61.38944468 140.17727351 -57.19158936 134.87786865 C-55.23360406 132.39880953 -53.36678909 129.9278997 -51.61322021 127.29754639 C-66.54512118 129.19180816 -66.54512118 129.19180816 -81.36322021 131.79754639 C-111.23747205 137.60133764 -154.17925189 144.68105188 -181.30072021 126.98114014 C-182.44540771 126.14776123 -182.44540771 126.14776123 -183.61322021 125.29754639 C-184.37634521 124.77289795 -185.13947021 124.24824951 -185.92572021 123.70770264 C-186.48259521 123.24235107 -187.03947021 122.77699951 -187.61322021 122.29754639 C-187.61322021 121.63754639 -187.61322021 120.97754639 -187.61322021 120.29754639 C-189.09822021 119.80254639 -189.09822021 119.80254639 -190.61322021 119.29754639 C-190.61322021 118.63754639 -190.61322021 117.97754639 -190.61322021 117.29754639 C-191.1739624 117.08614014 -191.73470459 116.87473389 -192.31243896 116.65692139 C-195.39336996 114.83660902 -197.29694831 112.35633691 -199.42572021 109.54754639 C-199.86005371 108.97915039 -200.29438721 108.41075439 -200.74188232 107.82513428 C-208.09337095 97.89351029 -214.04060964 86.94488059 -212.61322021 74.29754639 C-210.26289359 64.69854888 -206.34260748 57.47301046 -199.61322021 50.29754639 C-198.62322021 49.22440186 -198.62322021 49.22440186 -197.61322021 48.12957764 C-194.31283046 44.68479583 -194.31283046 44.68479583 -192.61322021 43.29754639 C-191.95322021 43.29754639 -191.29322021 43.29754639 -190.61322021 43.29754639 C-190.61322021 42.63754639 -190.61322021 41.97754639 -190.61322021 41.29754639 C-162.31262547 20.53741365 -125.32937494 14.39110028 -91.61322021 8.29754639 C-89.46476356 7.90051463 -87.31632484 7.50338575 -85.16790771 7.10614014 C-73.6825738 5.01252301 -62.24144956 3.32722166 -50.61322021 2.29754639 C-49.68122803 2.20731201 -48.74923584 2.11707764 -47.78900146 2.02410889 C-31.86779642 0.51556961 -15.9847368 0.07346733 0 0 Z " fill="#C7C2F1" transform="translate(297.61322021484375,42.70245361328125)"/>
<path d="M0 0 C2.10940185 -0.01050363 4.21878732 -0.02533986 6.328125 -0.04486084 C18.76657729 -0.14463121 30.26306353 0.44951177 42.39282227 3.29653931 C43.50294678 3.53155151 44.61307129 3.76656372 45.75683594 4.00869751 C62.29552505 7.52422235 77.78114391 11.71270924 91.39282227 22.29653931 C91.39282227 22.95653931 91.39282227 23.61653931 91.39282227 24.29653931 C92.05282227 24.29653931 92.71282227 24.29653931 93.39282227 24.29653931 C93.39282227 24.95653931 93.39282227 25.61653931 93.39282227 26.29653931 C94.05282227 26.29653931 94.71282227 26.29653931 95.39282227 26.29653931 C105.00800812 37.39454901 107.29531704 49.94018725 106.39282227 64.29653931 C103.6430541 85.24604423 94.62548447 104.59924599 83.39282227 122.29653931 C82.81532227 123.21048462 82.23782227 124.12442993 81.64282227 125.06607056 C80.4554671 126.93666673 79.26294096 128.80399297 78.06469727 130.66763306 C76.52815665 133.08373547 75.05271157 135.52861362 73.58032227 137.98403931 C72.85844727 139.07716431 72.13657227 140.17028931 71.39282227 141.29653931 C70.73282227 141.29653931 70.07282227 141.29653931 69.39282227 141.29653931 C69.14790039 142.00423462 68.90297852 142.71192993 68.65063477 143.44107056 C67.21999942 146.68887938 65.4260283 149.16784363 63.26782227 151.98403931 C62.8667627 152.50876831 62.46570313 153.03349731 62.05249023 153.5741272 C55.93964512 161.54011688 49.6074227 169.29731882 43.07299805 176.91934204 C41.0264084 179.31535839 39.14355234 181.6704442 37.39282227 184.29653931 C36.73282227 184.29653931 36.07282227 184.29653931 35.39282227 184.29653931 C35.10407227 184.89466431 34.81532227 185.49278931 34.51782227 186.10903931 C33.39282227 188.29653931 33.39282227 188.29653931 31.39282227 191.29653931 C30.73282227 191.29653931 30.07282227 191.29653931 29.39282227 191.29653931 C29.16594727 191.83278931 28.93907227 192.36903931 28.70532227 192.92153931 C25.83055677 198.12349592 21.56519051 202.13872479 17.39282227 206.29653931 C16.28544459 207.40351707 15.17827975 208.51070776 14.07128906 209.61807251 C5.1784668 218.51089478 -3.71435547 227.40371704 -12.60717773 236.29653931 C-8.59526249 234.9939308 -4.67306222 233.56644905 -0.76342773 231.98403931 C0.3180957 231.54833618 1.39961914 231.11263306 2.51391602 230.66372681 C4.18647461 229.98696899 4.18647461 229.98696899 5.89282227 229.29653931 C8.11090294 228.39905001 10.32963307 227.5031638 12.54907227 226.60903931 C13.52682617 226.21329712 14.50458008 225.81755493 15.51196289 225.40982056 C24.6779085 221.86772632 24.6779085 221.86772632 28.39282227 223.29653931 C27.73282227 223.29653931 27.07282227 223.29653931 26.39282227 223.29653931 C26.39282227 223.95653931 26.39282227 224.61653931 26.39282227 225.29653931 C24.08282227 225.62653931 21.77282227 225.95653931 19.39282227 226.29653931 C19.39282227 226.95653931 19.39282227 227.61653931 19.39282227 228.29653931 C18.59618164 228.55048462 17.79954102 228.80442993 16.97875977 229.06607056 C10.36861511 231.1997148 10.36861511 231.1997148 4.01782227 233.98403931 C1.39282227 235.29653931 1.39282227 235.29653931 -1.66967773 235.79653931 C-4.91951591 236.34970325 -6.83535671 237.57351542 -9.60717773 239.29653931 C-10.59717773 239.29653931 -11.58717773 239.29653931 -12.60717773 239.29653931 C-12.60717773 239.95653931 -12.60717773 240.61653931 -12.60717773 241.29653931 C-13.76733398 241.56917603 -13.76733398 241.56917603 -14.95092773 241.84732056 C-16.51327148 242.22437134 -16.51327148 242.22437134 -18.10717773 242.60903931 C-19.12811523 242.85267212 -20.14905273 243.09630493 -21.20092773 243.34732056 C-25.10167595 244.43434099 -28.84022521 245.82481327 -32.60717773 247.29653931 C-35.19924399 248.30078597 -37.79161051 249.30424108 -40.38452148 250.30630493 C-42.20094277 251.00863712 -44.01605136 251.71437369 -45.82983398 252.42349243 C-59.33583673 257.62340179 -59.33583673 257.62340179 -66.54467773 257.48403931 C-67.29620117 257.47759399 -68.04772461 257.47114868 -68.82202148 257.46450806 C-70.60717773 257.29653931 -70.60717773 257.29653931 -71.60717773 256.29653931 C-72.02758387 251.01702045 -72.15395477 246.07174624 -69.60717773 241.29653931 C-68.94717773 241.29653931 -68.28717773 241.29653931 -67.60717773 241.29653931 C-67.54014648 240.61978149 -67.47311523 239.94302368 -67.40405273 239.24575806 C-66.34021041 235.30849849 -64.1979393 232.38133256 -61.85717773 229.10903931 C-61.12398315 228.06562378 -61.12398315 228.06562378 -60.37597656 227.00112915 C-58.79553895 224.75961792 -57.20203914 222.52780482 -55.60717773 220.29653931 C-54.5641998 218.82388956 -53.52123102 217.35123333 -52.47827148 215.87857056 C-46.35972412 207.28749186 -40.03418398 198.88393446 -33.51318359 190.59439087 C-29.5302192 185.52465022 -25.72510755 180.37597683 -22.06030273 175.06997681 C-21.34100586 174.19212524 -21.34100586 174.19212524 -20.60717773 173.29653931 C-19.94717773 173.29653931 -19.28717773 173.29653931 -18.60717773 173.29653931 C-18.24946289 172.22726196 -18.24946289 172.22726196 -17.88452148 171.13638306 C-16.40002823 167.83599591 -14.53963733 165.5930247 -12.16967773 162.85903931 C-11.26565362 161.80057635 -10.36337668 160.74061923 -9.46264648 159.67935181 C-8.99391113 159.12795532 -8.52517578 158.57655884 -8.04223633 158.00845337 C-5.62961264 155.13037965 -3.30134666 152.18762518 -0.98217773 149.23403931 C-0.52190186 148.64832153 -0.06162598 148.06260376 0.41259766 147.45913696 C3.92061119 142.96463129 7.27282155 138.37116588 10.54125977 133.69888306 C12.39282227 131.29653931 12.39282227 131.29653931 14.79125977 128.90200806 C17.69029739 125.99861752 20.14851012 122.92007111 22.64282227 119.67153931 C26.07906076 115.23955939 29.5556609 110.85850382 33.14282227 106.54653931 C36.71005548 102.23639935 39.90851296 97.7703239 42.98266602 93.09732056 C43.44801758 92.50306274 43.91336914 91.90880493 44.39282227 91.29653931 C45.05282227 91.29653931 45.71282227 91.29653931 46.39282227 91.29653931 C46.67206543 90.7200061 46.95130859 90.1434729 47.23901367 89.54946899 C48.3526119 87.37505417 49.56260519 85.32275816 50.85375977 83.24966431 C51.32555664 82.48653931 51.79735352 81.72341431 52.28344727 80.93716431 C53.26385488 79.35819205 54.24560071 77.78004983 55.22875977 76.20278931 C59.63057849 69.0737568 63.35300371 62.29897925 65.58032227 54.17153931 C66.0656543 52.43517212 66.0656543 52.43517212 66.56079102 50.66372681 C69.26100218 39.73611168 70.30103627 28.33542442 64.39282227 18.29653931 C57.64432923 8.8605933 45.75980781 6.32219991 34.88110352 3.83950806 C0.70525818 -1.4801364 -37.00661301 2.61751857 -71.14819336 7.05288696 C-73.65132852 7.30091406 -76.09352409 7.33873358 -78.60717773 7.29653931 C-75.70639346 5.68411877 -73.27123987 4.93614924 -69.98608398 4.51528931 C-69.06762695 4.39645386 -68.14916992 4.27761841 -67.20288086 4.15518188 C-66.20192383 4.03682983 -65.2009668 3.91847778 -64.16967773 3.79653931 C-63.10040039 3.66980835 -62.03112305 3.54307739 -60.92944336 3.4125061 C-40.60886829 1.09547924 -20.44183364 0.10126786 0 0 Z " fill="#7876A5" transform="translate(297.607177734375,42.703460693359375)"/>
<path d="M0 0 C5.56999932 -0.24249337 10.2718162 0.55162294 15.625 2.0625 C16.4082666 2.28147949 17.1915332 2.50045898 17.99853516 2.72607422 C26.60908408 5.27285629 35.12897456 9.10589761 42 15 C42 15.66 42 16.32 42 17 C42.99 17.33 43.98 17.66 45 18 C45 18.66 45 19.32 45 20 C45.66 20 46.32 20 47 20 C56.22774378 34.90176099 57.92322401 49.67780382 53.99487305 66.54370117 C51.99111593 74.10880206 48.25017026 80.49063729 44 87 C43.34 87 42.68 87 42 87 C42 87.66 42 88.32 42 89 C41.34 89 40.68 89 40 89 C39.67 89.99 39.34 90.98 39 92 C38.34 92 37.68 92 37 92 C37 92.66 37 93.32 37 94 C24.49485425 104.79155318 9.20531217 111.01686089 -6 117 C-10.25115426 118.68460021 -14.50063588 120.37339042 -18.75 122.0625 C-19.84699219 122.49626953 -20.94398438 122.93003906 -22.07421875 123.37695312 C-28.21935995 125.81785671 -28.21935995 125.81785671 -34.203125 128.62109375 C-38.01530821 130.50056396 -41.95701381 131.70920344 -46 133 C-48.08889138 133.69426117 -50.17740617 134.38965603 -52.265625 135.0859375 C-79.4407592 144.03934724 -105.42867915 150.20004564 -134.1875 150.3125 C-135.36828125 150.31805908 -136.5490625 150.32361816 -137.765625 150.3293457 C-145.67216076 150.26416358 -153.22080187 149.37169597 -161 148 C-161.87744873 147.86537354 -162.75489746 147.73074707 -163.65893555 147.59204102 C-176.60899085 145.59324984 -188.24679979 139.16880014 -199 132 C-199 131.34 -199 130.68 -199 130 C-199.598125 129.731875 -200.19625 129.46375 -200.8125 129.1875 C-202.99847854 128.00082594 -204.41332594 126.90400887 -206 125 C-206 124.34 -206 123.68 -206 123 C-206.66 123 -207.32 123 -208 123 C-219.08881021 110.62634024 -222.87190662 94.16068785 -222 78 C-221.69776017 75.99506554 -221.37348073 73.99289319 -221 72 C-220.67 72 -220.34 72 -220 72 C-220 78.93 -220 85.86 -220 93 C-219.34 93 -218.68 93 -218 93 C-217.87044922 93.97839844 -217.87044922 93.97839844 -217.73828125 94.9765625 C-216.73555764 101.21368731 -215.33289943 104.43905323 -211 109 C-211 109.66 -211 110.32 -211 111 C-210.41605469 111.28875 -209.83210937 111.5775 -209.23046875 111.875 C-207.86803135 112.56218384 -206.51385104 113.26649707 -205.17578125 114 C-204.56089844 114.33 -203.94601563 114.66 -203.3125 115 C-202.40951172 115.495 -202.40951172 115.495 -201.48828125 116 C-177.98659303 125.44494848 -149.07106995 117.88270763 -125.66186523 111.90820312 C-121.79224321 110.94847288 -117.91462893 110.15527739 -114 109.40771484 C-111.33229096 108.86388256 -108.77467479 108.09388534 -106.1875 107.25 C-100.38329734 105.40880835 -94.54740371 103.71751904 -88.6875 102.0625 C-76.81158439 98.6912039 -65.0045514 95.20505178 -53.4296875 90.89453125 C-51.19432672 90.07154473 -48.95080695 89.3044999 -46.6875 88.5625 C-34.7717827 84.76137521 -34.7717827 84.76137521 -23.375 79.6875 C-20 78 -20 78 -16 78 C-16 77.34 -16 76.68 -16 76 C-15.48695313 75.83886719 -14.97390625 75.67773438 -14.4453125 75.51171875 C0.07881411 70.35247512 15.06977086 61.60146932 22.4375 47.6875 C25.84672076 40.39513094 25.72970555 33.7264976 23.375 26.125 C18.6114069 13.05396427 12.44830022 7.0780433 0 1 C0 0.67 0 0.34 0 0 Z " fill="#7977A6" transform="translate(368,262)"/>
<path d="M0 0 C1.02683009 3.08049026 0.92155238 5.29925306 0.73144531 8.49707031 C0.42348233 14.65350471 0.27272298 19.18954966 4.25 24.25 C5.45801779 25.5406173 6.70871248 26.79269866 8 28 C8.60585937 28.68191406 9.21171875 29.36382812 9.8359375 30.06640625 C12.5072114 32.45319431 15.02145552 33.44848648 18.375 34.6875 C19.47585937 35.10386719 20.57671875 35.52023438 21.7109375 35.94921875 C42.88544226 42.71399521 67.97566034 35.01656036 89 31 C90.57419243 30.70428693 92.1484073 30.40869328 93.72265625 30.11328125 C99.79020703 28.94668196 105.66429757 27.60011833 111.55102539 25.72412109 C113.77757575 25.06576715 115.95143815 24.56350497 118.23046875 24.12890625 C122.11270302 23.37363977 125.98837031 22.59262496 129.86068726 21.78793335 C175.13293598 12.38810196 175.13293598 12.38810196 189 14 C189.99 14.66 190.98 15.32 192 16 C191.4028768 20.05260667 189.17479656 22.90615255 186.8125 26.125 C186.38050293 26.72320557 185.94850586 27.32141113 185.50341797 27.93774414 C181.10114518 33.97683822 176.48599272 39.85418319 171.82348633 45.69384766 C169.22195546 48.98329219 166.79064461 52.19874201 164.75390625 55.87109375 C163 59 163 59 160.3125 61.625 C157.71987831 64.28769255 157.63353776 65.4702896 157 69 C154.70614672 71.75262393 153.42647711 72.85784096 150 74 C148.22894399 76.13560077 146.56899704 78.26292546 144.9375 80.5 C140.24622166 86.87688917 140.24622166 86.87688917 138 88 C139.30004771 85.24746955 140.73936307 82.85233414 142.57421875 80.42578125 C143.07405273 79.76191406 143.57388672 79.09804687 144.08886719 78.4140625 C144.61641602 77.72054687 145.14396484 77.02703125 145.6875 76.3125 C146.22407227 75.60222656 146.76064453 74.89195312 147.31347656 74.16015625 C151.1644407 69.07196253 155.05486635 64.01557224 159 59 C144.06809904 60.89426177 144.06809904 60.89426177 129.25 63.5 C99.37574816 69.30379126 56.43396833 76.38350549 29.3125 58.68359375 C28.1678125 57.85021484 28.1678125 57.85021484 27 57 C26.236875 56.47535156 25.47375 55.95070312 24.6875 55.41015625 C24.130625 54.94480469 23.57375 54.47945312 23 54 C23 53.34 23 52.68 23 52 C21.515 51.505 21.515 51.505 20 51 C20 50.34 20 49.68 20 49 C19.43925781 48.78859375 18.87851563 48.5771875 18.30078125 48.359375 C15.21985025 46.53906263 13.3162719 44.05879053 11.1875 41.25 C10.7531665 40.681604 10.31883301 40.11320801 9.87133789 39.52758789 C2.32377778 29.33107765 -2.87085501 18.88055312 -2 6 C-1 2.375 -1 2.375 0 0 Z " fill="#7977A6" transform="translate(87,111)"/>
<path d="M0 0 C2.40380701 1.90365184 2.99066165 2.64620637 3.3984375 5.71875 C2.89468008 9.42078126 0.82409801 10.81124125 -1.9375 13.1875 C-5.16541555 15.3394437 -6.22150809 15.38836443 -9.9375 15.1875 C-9.9375 15.8475 -9.9375 16.5075 -9.9375 17.1875 C-15.96978065 17.26174697 -22.00179432 17.3161483 -28.03442383 17.35229492 C-30.08590326 17.36736622 -32.13735056 17.38782682 -34.1887207 17.41381836 C-37.14021748 17.45027424 -40.09128763 17.46724306 -43.04296875 17.48046875 C-44.41511787 17.50369453 -44.41511787 17.50369453 -45.81498718 17.52738953 C-50.70133243 17.52867621 -53.96779346 17.36606659 -57.9375 14.1875 C-59.9375 12.1875 -59.9375 12.1875 -60.125 10.19921875 C-59.78156844 5.94209839 -59.36032971 3.71318018 -56.625 0.3125 C-44.01288945 -8.20362138 -12.60000972 -8.53903098 0 0 Z " fill="#FAF8FB" transform="translate(318.9375,60.8125)"/>
<path d="M0 0 C3.0625 1 3.0625 1 5 3 C5.7924492 7.91318502 5.72520541 9.85370758 3.0625 14.0625 C-0.69783693 16.44148867 -2.63366374 16.35683471 -6.90625 15.56640625 C-9.7212571 14.80488381 -11.22947013 14.38636634 -13 12 C-13.55302077 7.64496146 -13.74510377 5.29583264 -11.5625 1.5 C-7.72464625 -0.74654853 -4.33640654 -0.60956604 0 0 Z " fill="#F9F7FB" transform="translate(346,64)"/>
<path d="M0 0 C7.30106931 -0.12588051 7.30106931 -0.12588051 10.7706604 0.49900818 C13.91328857 0.9865478 16.82852039 1.12046175 20.00537109 1.11352539 C21.74649673 1.11341209 21.74649673 1.11341209 23.52279663 1.11329651 C24.76050812 1.10813522 25.9982196 1.10297394 27.2734375 1.09765625 C29.19175888 1.09553383 29.19175888 1.09553383 31.14883423 1.09336853 C34.53211336 1.08873022 37.91532386 1.07976081 41.29858398 1.06866455 C44.75764374 1.05839515 48.21671061 1.05385911 51.67578125 1.04882812 C58.45053966 1.03781609 65.22526587 1.02109064 72 1 C72 1.33 72 1.66 72 2 C47.51044414 4.47698517 24.25348767 6.45446187 0 1 C0 0.67 0 0.34 0 0 Z " fill="#515067" transform="translate(130,175)"/>
<path d="M0 0 C-3.53668072 2.08143803 -6.90621092 2.61154203 -10.9375 3.25 C-20.75385074 4.86280578 -30.47150521 6.93787733 -40.19702148 9.01855469 C-41.40688721 9.27411133 -42.61675293 9.52966797 -43.86328125 9.79296875 C-44.94907471 10.0252417 -46.03486816 10.25751465 -47.15356445 10.49682617 C-50 11 -50 11 -54 11 C-54 11.66 -54 12.32 -54 13 C-55.91512272 13.50588147 -57.83216922 14.00448391 -59.75 14.5 C-60.81734375 14.7784375 -61.8846875 15.056875 -62.984375 15.34375 C-66 16 -66 16 -70 16 C-70 16.66 -70 17.32 -70 18 C-70.99 18 -71.98 18 -73 18 C-73.33 18.66 -73.66 19.32 -74 20 C-75.65 19.67 -77.3 19.34 -79 19 C-65.10700817 5.10700817 -18.73087072 -0.44597311 0 0 Z " fill="#494757" transform="translate(218,50)"/>
<path d="M0 0 C0.33 0 0.66 0 1 0 C1 6.93 1 13.86 1 21 C1.66 21 2.32 21 3 21 C3.12955078 21.97839844 3.12955078 21.97839844 3.26171875 22.9765625 C4.26444236 29.21368731 5.66710057 32.43905323 10 37 C10 37.66 10 38.32 10 39 C10.99 39.33 11.98 39.66 13 40 C13.625 43.375 13.625 43.375 14 47 C13.34 47.66 12.68 48.32 12 49 C1.43998058 36.98843152 -1.84112833 21.59021572 -1 6 C-0.69776017 3.99506554 -0.37348073 1.99289319 0 0 Z " fill="#5E5B7B" transform="translate(147,334)"/>
<path d="M0 0 C-3.56782915 2.37855277 -6.86020025 2.87736677 -11 3.5625 C-12.05767578 3.75102539 -12.05767578 3.75102539 -13.13671875 3.94335938 C-23.86160882 5.78218703 -34.50733335 6.18181607 -45.375 6.1875 C-47.21191406 6.20586914 -47.21191406 6.20586914 -49.0859375 6.22460938 C-57.23733406 6.23756181 -64.98545064 5.48246485 -73 4 C-73 3.67 -73 3.34 -73 3 C-71.52374679 2.77193583 -70.04363081 2.56887709 -68.5625 2.375 C-67.73878906 2.25898438 -66.91507813 2.14296875 -66.06640625 2.0234375 C-63.33009349 2.00252301 -61.43494807 2.3103681 -58.81640625 2.9609375 C-53.63901626 4.20290789 -48.6806013 4.30327097 -43.375 4.25 C-42.41513184 4.24468262 -41.45526367 4.23936523 -40.46630859 4.23388672 C-31.049204 4.10945935 -21.74567657 3.368935 -12.625 0.875 C-8.324188 -0.16312703 -4.39626693 -0.18317779 0 0 Z " fill="#424156" transform="translate(280,406)"/>
<path d="M0 0 C-0.66 0 -1.32 0 -2 0 C-2 0.66 -2 1.32 -2 2 C-4.31 2.33 -6.62 2.66 -9 3 C-9 3.66 -9 4.32 -9 5 C-9.79664063 5.25394531 -10.59328125 5.50789063 -11.4140625 5.76953125 C-18.02420715 7.90317549 -18.02420715 7.90317549 -24.375 10.6875 C-27.3087103 12.15435515 -29.75619385 12.59452423 -33 13 C-34.670625 13.2784375 -34.670625 13.2784375 -36.375 13.5625 C-37.24125 13.706875 -38.1075 13.85125 -39 14 C-35.95767493 11.50742208 -33.00252399 10.032548 -29.3515625 8.58984375 C-28.26359375 8.15736328 -27.175625 7.72488281 -26.0546875 7.27929688 C-24.92289062 6.83650391 -23.79109375 6.39371094 -22.625 5.9375 C-21.5009375 5.49083984 -20.376875 5.04417969 -19.21875 4.58398438 C-3.86525316 -1.48663583 -3.86525316 -1.48663583 0 0 Z " fill="#7F7B95" transform="translate(326,266)"/>
<path d="M0 0 C0.64453125 1.765625 0.64453125 1.765625 1 4 C0.07421875 5.921875 0.07421875 5.921875 -1.3125 7.75 C-1.98732422 8.67039063 -1.98732422 8.67039063 -2.67578125 9.609375 C-3.11277344 10.06828125 -3.54976562 10.5271875 -4 11 C-4.66 11 -5.32 11 -6 11 C-6.33 12.32 -6.66 13.64 -7 15 C-7.66 15 -8.32 15 -9 15 C-9.433125 16.3921875 -9.433125 16.3921875 -9.875 17.8125 C-11.8650519 23.45098039 -11.8650519 23.45098039 -14.921875 24.9296875 C-17.493643 26.2542447 -18.58512948 27.77904608 -20.25 30.125 C-20.77078125 30.84945312 -21.2915625 31.57390625 -21.828125 32.3203125 C-22.40820312 33.15175781 -22.40820312 33.15175781 -23 34 C-23 29.88617958 -20.91176781 27.54974952 -18.625 24.3125 C-18.2125 23.70599609 -17.8 23.09949219 -17.375 22.47460938 C-16.30629935 20.94223053 -15.15838741 19.46575735 -14 18 C-13.34 18 -12.68 18 -12 18 C-11.88140625 17.40598389 -11.7628125 16.81196777 -11.640625 16.19995117 C-10.62115681 12.69902593 -8.23994471 10.12176399 -6 7.3125 C-5.5359375 6.71888672 -5.071875 6.12527344 -4.59375 5.51367188 C-1.24503968 1.24503968 -1.24503968 1.24503968 0 0 Z " fill="#6C697F" transform="translate(224,199)"/>
<path d="M0 0 C6.19364132 -0.28152915 11.11906767 0.61443244 17 2.5 C17.77472656 2.73847656 18.54945313 2.97695313 19.34765625 3.22265625 C21.23487758 3.80513197 23.11790951 4.40115303 25 5 C25 5.33 25 5.66 25 6 C23.35 6.33 21.7 6.66 20 7 C20.33 7.99 20.66 8.98 21 10 C20.34 10.66 19.68 11.32 19 12 C18.49984375 11.24332031 17.9996875 10.48664062 17.484375 9.70703125 C14.37883186 6.32316113 11.4971976 5.20894413 7.25 3.6875 C6.55261719 3.42388672 5.85523438 3.16027344 5.13671875 2.88867188 C3.42952712 2.24555174 1.71540698 1.62087492 0 1 C0 0.67 0 0.34 0 0 Z " fill="#666383" transform="translate(342,48)"/>
<path d="M0 0 C5.72902623 -0.27426189 10.50595707 0.67368903 16 2.25 C17.15242188 2.55744141 17.15242188 2.55744141 18.328125 2.87109375 C23.39236731 4.29218215 27.53365512 6.22041303 32 9 C31.01 9.495 31.01 9.495 30 10 C29.05125 9.505 28.1025 9.01 27.125 8.5 C24.25227751 6.77818188 24.25227751 6.77818188 21.875 7.25 C21.25625 7.4975 20.6375 7.745 20 8 C16.22222222 9.11111111 16.22222222 9.11111111 14 8 C14 6.35 14 4.7 14 3 C13.11248047 2.90912109 13.11248047 2.90912109 12.20703125 2.81640625 C8.09021792 2.37987629 4.04455467 1.91328654 0 1 C0 0.67 0 0.34 0 0 Z " fill="#4C4B67" transform="translate(368,262)"/>
<path d="M0 0 C1.43666598 4.30999795 0.9711394 8.61552447 0.78515625 13.10742188 C0.69560133 17.49968339 1.0534461 19.73854721 4 23 C4.6875 26.25 4.6875 26.25 5 29 C5.66 29 6.32 29 7 29 C7.99 31.97 8.98 34.94 10 38 C6.39638254 34.81799783 4.36538624 31.27572821 2.3125 27 C1.85133789 26.07574219 1.85133789 26.07574219 1.38085938 25.1328125 C-2.29507174 17.63616524 -3.24618462 10.51741926 -1 2.375 C-0.67 1.59125 -0.34 0.8075 0 0 Z " fill="#444351" transform="translate(87,111)"/>
<path d="M0 0 C0.33 0 0.66 0 1 0 C1 6.93 1 13.86 1 21 C1.66 21 2.32 21 3 21 C4.17122859 26.65146223 5.25339288 32.27601207 6 38 C-0.54555458 30.47917654 -1.47195062 18.45819115 -1.23828125 8.90234375 C-0.99122335 5.89309754 -0.54265261 2.96914801 0 0 Z " fill="#57566C" transform="translate(147,334)"/>
<path d="M0 0 C0.33 0.66 0.66 1.32 1 2 C0.22265625 3.9453125 0.22265625 3.9453125 -0.9375 6.125 C-1.31777344 6.84945312 -1.69804687 7.57390625 -2.08984375 8.3203125 C-2.39019531 8.87460937 -2.69054687 9.42890625 -3 10 C-3.66 10 -4.32 10 -5 10 C-4.773125 10.5775 -4.54625 11.155 -4.3125 11.75 C-4 14 -4 14 -5.25 16.25 C-5.8275 16.8275 -6.405 17.405 -7 18 C-7.99 18 -8.98 18 -10 18 C-10.33 19.65 -10.66 21.3 -11 23 C-11.66 23 -12.32 23 -13 23 C-11.125 17.25 -11.125 17.25 -10 15 C-9.34 15 -8.68 15 -8 15 C-7.87625 14.4225 -7.7525 13.845 -7.625 13.25 C-6.99351176 10.97664233 -6.11141809 9.0746471 -5 7 C-4.34 7 -3.68 7 -3 7 C-2.690625 6.030625 -2.38125 5.06125 -2.0625 4.0625 C-1 1 -1 1 0 0 Z " fill="#807C94" transform="translate(189,248)"/>
<path d="M0 0 C-1.28913487 0.67154933 -2.58140204 1.33708859 -3.875 2 C-4.59429687 2.37125 -5.31359375 2.7425 -6.0546875 3.125 C-8 4 -8 4 -10 4 C-10 4.66 -10 5.32 -10 6 C-11.32 6 -12.64 6 -14 6 C-14 6.66 -14 7.32 -14 8 C-17.4019487 10.09350689 -20.05272412 10.17942163 -24 10 C-20.72123918 6.42918577 -16.89448682 4.78687038 -12.5625 2.75 C-11.4168457 2.18539062 -11.4168457 2.18539062 -10.24804688 1.609375 C-9.50748047 1.25875 -8.76691406 0.908125 -8.00390625 0.546875 C-7.33174072 0.22557617 -6.6595752 -0.09572266 -5.96704102 -0.42675781 C-3.61332434 -1.11268642 -2.29091679 -0.78121957 0 0 Z " fill="#636074" transform="translate(139,70)"/>
<path d="M0 0 C1.8161982 0.42188459 3.62794073 0.86299165 5.4375 1.3125 C6.44683594 1.55613281 7.45617187 1.79976563 8.49609375 2.05078125 C9.32238281 2.36402344 10.14867187 2.67726563 11 3 C11.33 3.99 11.66 4.98 12 6 C12.928125 5.9175 13.85625 5.835 14.8125 5.75 C18 6 18 6 19.875 8 C20.431875 8.99 20.431875 8.99 21 10 C16.04964336 9.44489088 12.06788791 7.82408829 7.6875 5.5625 C7.05521484 5.24990234 6.42292969 4.93730469 5.77148438 4.61523438 C1.13144405 2.2628881 1.13144405 2.2628881 0 0 Z " fill="#52526B" transform="translate(174,396)"/>
<path d="M0 0 C1.12588014 0.95729916 2.2506715 1.91587895 3.375 2.875 C4.00148438 3.40867188 4.62796875 3.94234375 5.2734375 4.4921875 C9.27833187 7.98967444 9.61227937 10.8473969 10 16 C10 16.99 10 17.98 10 19 C6.13521815 14.60214479 3 10.02718405 3 4 C2.34 4 1.68 4 1 4 C0.67 2.68 0.34 1.36 0 0 Z " fill="#686889" transform="translate(91,136)"/>
<path d="M0 0 C-2.78469002 1.85646001 -4.2681416 2.45157815 -7.4375 3.125 C-8.19933594 3.29257813 -8.96117187 3.46015625 -9.74609375 3.6328125 C-12 4 -12 4 -16 4 C-16 4.66 -16 5.32 -16 6 C-16.99 6 -17.98 6 -19 6 C-19.33 6.66 -19.66 7.32 -20 8 C-21.65 7.67 -23.3 7.34 -25 7 C-22.34962075 4.34962075 -19.35477152 3.53043725 -15.875 2.375 C-15.20009521 2.14917236 -14.52519043 1.92334473 -13.82983398 1.69067383 C-8.98015149 0.14258002 -5.0368071 -0.51395991 0 0 Z " fill="#656375" transform="translate(164,62)"/>
<path d="M0 0 C-0.66 0 -1.32 0 -2 0 C-2 0.66 -2 1.32 -2 2 C-4.31 2.33 -6.62 2.66 -9 3 C-9 3.66 -9 4.32 -9 5 C-11.75078884 5.91692961 -13.35948913 6.10886083 -16.1875 6.0625 C-18.0746875 6.0315625 -18.0746875 6.0315625 -20 6 C-17.33273284 3.33273284 -14.66490592 2.59672782 -11.125 1.3125 C-9.89007813 0.85488281 -8.65515625 0.39726562 -7.3828125 -0.07421875 C-4.24372203 -0.93330009 -2.93736498 -1.21775181 0 0 Z " fill="#868399" transform="translate(326,266)"/>
<path d="M0 0 C0.226875 0.598125 0.45375 1.19625 0.6875 1.8125 C2.35611784 4.59352973 4.16952367 5.48120782 7 7 C10 9 10 9 10.6875 11.125 C10.790625 11.74375 10.89375 12.3625 11 13 C8.525 12.01 8.525 12.01 6 11 C6 10.34 6 9.68 6 9 C5.401875 8.731875 4.80375 8.46375 4.1875 8.1875 C2.00152146 7.00082594 0.58667406 5.90400887 -1 4 C-1 3.34 -1 2.68 -1 2 C-1.66 1.67 -2.32 1.34 -3 1 C-2.01 0.67 -1.02 0.34 0 0 Z " fill="#53526B" transform="translate(163,383)"/>
<path d="M0 0 C0.66 0.33 1.32 0.66 2 1 C0.71937515 2.7074998 -0.61767557 4.37373596 -2 6 C-2.66 6 -3.32 6 -4 6 C-4.226875 6.5775 -4.45375 7.155 -4.6875 7.75 C-6.33038023 10.5663661 -8.39533227 12.08077114 -11 14 C-10.71125 13.443125 -10.4225 12.88625 -10.125 12.3125 C-8.9586747 9.91505355 -7.9660119 7.48403061 -7 5 C-6.34 5 -5.68 5 -5 5 C-5 4.34 -5 3.68 -5 3 C-2.625 1.3125 -2.625 1.3125 0 0 Z " fill="#4C4B5E" transform="translate(331,228)"/>
<path d="M0 0 C2.33257494 0.33859959 4.66574212 0.6732039 7 1 C7 1.33 7 1.66 7 2 C4.39555652 2.05394705 1.79223002 2.09364469 -0.8125 2.125 C-1.55048828 2.14175781 -2.28847656 2.15851563 -3.04882812 2.17578125 C-6.91246426 2.21074628 -8.70903668 2.19397555 -12 0 C-7.62289975 -0.93795005 -4.37042061 -0.89192257 0 0 Z " fill="#5C5A73" transform="translate(219,409)"/>
<path d="M0 0 C1.27351308 2.54702616 0.80191925 3.4282945 0.0625 6.125 C-0.13214844 6.84945313 -0.32679688 7.57390625 -0.52734375 8.3203125 C-0.76130859 9.15175781 -0.76130859 9.15175781 -1 10 C-1.639375 10.12375 -2.27875 10.2475 -2.9375 10.375 C-3.618125 10.58125 -4.29875 10.7875 -5 11 C-5.33 11.66 -5.66 12.32 -6 13 C-5.51675181 7.84535266 -2.81389239 4.18449681 0 0 Z " fill="#76738A" transform="translate(175,271)"/>
<path d="M0 0 C2.52259061 1.97420135 2.9929808 2.96745642 3.6875 6.1875 C3.790625 7.115625 3.89375 8.04375 4 9 C4.66 9 5.32 9 6 9 C6.99 11.97 7.98 14.94 9 18 C4.53476648 14.36166158 2.06669841 9.28532709 0 4 C0 2.68 0 1.36 0 0 Z " fill="#4D4C5F" transform="translate(88,131)"/>
<path d="M0 0 C-0.75796875 0.72316406 -0.75796875 0.72316406 -1.53125 1.4609375 C-2.1809375 2.09257812 -2.830625 2.72421875 -3.5 3.375 C-4.1496875 4.00148438 -4.799375 4.62796875 -5.46875 5.2734375 C-7.22117431 6.86475907 -7.22117431 6.86475907 -7 9 C-8.32 9.33 -9.64 9.66 -11 10 C-10.71125 9.443125 -10.4225 8.88625 -10.125 8.3125 C-8.92638182 5.99761036 -8.92638182 5.99761036 -8.1875 3.375 C-7 1 -7 1 -4.5 -0.375 C-2 -1 -2 -1 0 0 Z " fill="#50506B" transform="translate(291,273)"/>
<path d="M0 0 C-4.20751447 2.80500965 -7.24985414 3.12829139 -12.25 3.0625 C-13.14203125 3.05347656 -14.0340625 3.04445313 -14.953125 3.03515625 C-15.62859375 3.02355469 -16.3040625 3.01195312 -17 3 C-11.64153053 -0.57231298 -6.234225 -0.12223971 0 0 Z " fill="#4D4C64" transform="translate(280,406)"/>
<path d="M0 0 C0.65234375 1.765625 0.65234375 1.765625 1 4 C0.00390625 5.921875 0.00390625 5.921875 -1.4375 7.75 C-1.91058594 8.36359375 -2.38367188 8.9771875 -2.87109375 9.609375 C-3.24363281 10.06828125 -3.61617187 10.5271875 -4 11 C-4.66 10.67 -5.32 10.34 -6 10 C-3 2.42857143 -3 2.42857143 0 0 Z " fill="#837F97" transform="translate(224,199)"/>
<path d="M0 0 C0.33 0.99 0.66 1.98 1 3 C-0.109375 4.97265625 -0.109375 4.97265625 -1.75 7.0625 C-2.28109375 7.75472656 -2.8121875 8.44695312 -3.359375 9.16015625 C-5 11 -5 11 -8 13 C-7.39665691 9.29496359 -5.77525763 7.14031852 -3.4375 4.25 C-2.79683594 3.45078125 -2.15617188 2.6515625 -1.49609375 1.828125 C-1.00238281 1.22484375 -0.50867188 0.6215625 0 0 Z " fill="#BBB7D9" transform="translate(233,189)"/>
<path d="M0 0 C0.33 0 0.66 0 1 0 C0.6083965 5.95507399 -0.37124595 10.62819824 -3 16 C-3.33 16 -3.66 16 -4 16 C-4 13.36 -4 10.72 -4 8 C-3.01 8 -2.02 8 -1 8 C-0.67 5.36 -0.34 2.72 0 0 Z " fill="#52536F" transform="translate(400,117)"/>
<path d="M0 0 C0.33 0 0.66 0 1 0 C0.63495936 5.66442374 -0.0554321 10.00703705 -3 15 C-4.38802458 12.22395084 -3.74123398 10.52761027 -3.1875 7.5 C-3.01605469 6.5203125 -2.84460938 5.540625 -2.66796875 4.53125 C-2 2 -2 2 0 0 Z " fill="#4D4C64" transform="translate(421,323)"/>
<path d="M0 0 C0.33 0.66 0.66 1.32 1 2 C0.22265625 3.9453125 0.22265625 3.9453125 -0.9375 6.125 C-1.31777344 6.84945312 -1.69804687 7.57390625 -2.08984375 8.3203125 C-2.54037109 9.15175781 -2.54037109 9.15175781 -3 10 C-3.66 10 -4.32 10 -5 10 C-5.66 11.32 -6.32 12.64 -7 14 C-7 10.89448334 -6.4606285 9.64738916 -5 7 C-4.34 7 -3.68 7 -3 7 C-2.690625 6.030625 -2.38125 5.06125 -2.0625 4.0625 C-1 1 -1 1 0 0 Z " fill="#595768" transform="translate(189,248)"/>
<path d="M0 0 C3.65786455 3.36128094 6.1784694 6.34497737 8 11 C7.67 11.99 7.34 12.98 7 14 C4 8.25 4 8.25 4 6 C2.68 5.67 1.36 5.34 0 5 C0 3.35 0 1.7 0 0 Z " fill="#4F4E5F" transform="translate(393,71)"/>
<path d="M0 0 C0 0.66 0 1.32 0 2 C-3.4019487 4.09350689 -6.05272412 4.17942163 -10 4 C-6.66064924 0.50886057 -4.84725717 -0.1275594 0 0 Z " fill="#89869D" transform="translate(125,76)"/>
<path d="M0 0 C-0.66 0 -1.32 0 -2 0 C-2 0.66 -2 1.32 -2 2 C-5.47325181 3.1577506 -8.36067448 3.06866652 -12 3 C-8.61613364 -0.38386636 -4.56431325 -1.75550509 0 0 Z " fill="#69677B" transform="translate(326,266)"/>
<path d="M0 0 C1.7074998 1.28062485 3.37373596 2.61767557 5 4 C5 4.66 5 5.32 5 6 C5.99 6.33 6.98 6.66 8 7 C5.50907189 8.24546405 4.58919267 7.7767578 2 7 C1.34 4.69 0.68 2.38 0 0 Z " fill="#837EA5" transform="translate(152,367)"/>
<path d="M0 0 C0.66 0 1.32 0 2 0 C2.33 0.99 2.66 1.98 3 3 C1.71034824 4.37562854 0.37310707 5.70766393 -1 7 C-1.66 7 -2.32 7 -3 7 C-2.25 2.25 -2.25 2.25 0 0 Z " fill="#8A87A6" transform="translate(241,177)"/>
<path d="M0 0 C1.32 0 2.64 0 4 0 C4 0.66 4 1.32 4 2 C5.65 2 7.3 2 9 2 C9 3.32 9 4.64 9 6 C5.06326356 4.68775452 2.77280706 3.08089673 0 0 Z " fill="#54506D" transform="translate(110,164)"/>
<path d="M0 0 C2.31 1.98 4.62 3.96 7 6 C6.67 6.99 6.34 7.98 6 9 C5.34 9 4.68 9 4 9 C3.67 7.35 3.34 5.7 3 4 C2.34 4 1.68 4 1 4 C0.67 2.68 0.34 1.36 0 0 Z " fill="#837EA7" transform="translate(91,136)"/>
<path d="M0 0 C1.65 0 3.3 0 5 0 C1.82679218 3.53586014 -0.16743695 5.58578031 -5 6 C-4.67 5.34 -4.34 4.68 -4 4 C-3.01 4 -2.02 4 -1 4 C-0.67 2.68 -0.34 1.36 0 0 Z " fill="#4F4F6B" transform="translate(391,361)"/>
<path d="M0 0 C0.66 0.33 1.32 0.66 2 1 C1.25 7.625 1.25 7.625 -1 11 C-1.125 3.375 -1.125 3.375 0 0 Z " fill="#B6B2D3" transform="translate(148,339)"/>
<path d="M0 0 C1 2 1 2 0.375 4.5 C-1 7 -1 7 -3.625 8.3125 C-4.40875 8.539375 -5.1925 8.76625 -6 9 C-4.47291037 5.56404834 -2.40072955 2.88087546 0 0 Z " fill="#615B6F" transform="translate(218,207)"/>
<path d="M0 0 C0.66 0.33 1.32 0.66 2 1 C0.7391988 2.03319813 -0.53403258 3.05124379 -1.8125 4.0625 C-2.87404297 4.91521484 -2.87404297 4.91521484 -3.95703125 5.78515625 C-4.63121094 6.18605469 -5.30539062 6.58695312 -6 7 C-6.99 6.67 -7.98 6.34 -9 6 C-6.03 4.02 -3.06 2.04 0 0 Z " fill="#8B88B7" transform="translate(378,324)"/>
<path d="M0 0 C0.99 0.33 1.98 0.66 3 1 C3 1.66 3 2.32 3 3 C3.66 3 4.32 3 5 3 C5.66 4.65 6.32 6.3 7 8 C4.625 7.375 4.625 7.375 2 6 C0.6875 2.875 0.6875 2.875 0 0 Z " fill="#515066" transform="translate(410,279)"/>
<path d="M0 0 C0.66 0.33 1.32 0.66 2 1 C-0.97 4.96 -0.97 4.96 -4 9 C-5 7 -5 7 -4.25 3.9375 C-3.8375 2.968125 -3.425 1.99875 -3 1 C-2.01 0.67 -1.02 0.34 0 0 Z " fill="#4C4C68" transform="translate(361,191)"/>
<path d="M0 0 C0.33 0.99 0.66 1.98 1 3 C-0.21484375 4.82421875 -0.21484375 4.82421875 -1.9375 6.6875 C-2.50339844 7.31011719 -3.06929688 7.93273437 -3.65234375 8.57421875 C-4.09707031 9.04472656 -4.54179687 9.51523438 -5 10 C-5.66 9.67 -6.32 9.34 -7 9 C-4.69 6.03 -2.38 3.06 0 0 Z " fill="#B9B5E5" transform="translate(274,136)"/>
<path d="M0 0 C-3.44450737 2.29633824 -5.93812283 2.54016485 -10 3 C-10 2.34 -10 1.68 -10 1 C-6.78548731 -0.60725635 -3.56387464 -0.05748185 0 0 Z " fill="#837F98" transform="translate(164,62)"/>
<path d="M0 0 C0.33 0.66 0.66 1.32 1 2 C-0.76227632 5.61730402 -2.64326421 7.80075931 -6 10 C-4.34832443 6.4213696 -2.21713508 3.25179812 0 0 Z " fill="#8A88B7" transform="translate(255,245)"/>
<path d="M0 0 C2.375 0.3125 2.375 0.3125 5 1 C5.66 1.99 6.32 2.98 7 4 C4.03 3.505 4.03 3.505 1 3 C0.67 2.01 0.34 1.02 0 0 Z " fill="#5E5E77" transform="translate(188,402)"/>
<path d="M0 0 C0.99 0 1.98 0 3 0 C1.125 4.75 1.125 4.75 0 7 C-0.66 6.67 -1.32 6.34 -2 6 C-1.34 4.02 -0.68 2.04 0 0 Z " fill="#5D5D75" transform="translate(412,342)"/>
<path d="M0 0 C1.98 0 3.96 0 6 0 C6 1.65 6 3.3 6 5 C3.98079663 3.69593116 1.98075027 2.36176581 0 1 C0 0.67 0 0.34 0 0 Z " fill="#8881B3" transform="translate(376,266)"/>
<path d="" fill="#000000" transform="translate(0,0)"/>
<path d="" fill="#000000" transform="translate(0,0)"/>
<path d="" fill="#000000" transform="translate(0,0)"/>
<path d="" fill="#000000" transform="translate(0,0)"/>
<path d="" fill="#000000" transform="translate(0,0)"/>
<path d="" fill="#000000" transform="translate(0,0)"/>
<path d="" fill="#000000" transform="translate(0,0)"/>
<path d="" fill="#000000" transform="translate(0,0)"/>
<path d="" fill="#000000" transform="translate(0,0)"/>
<path d="" fill="#000000" transform="translate(0,0)"/>
<path d="" fill="#000000" transform="translate(0,0)"/>
<path d="" fill="#000000" transform="translate(0,0)"/>
<path d="" fill="#000000" transform="translate(0,0)"/>
<path d="" fill="#000000" transform="translate(0,0)"/>
<path d="" fill="#000000" transform="translate(0,0)"/>
<path d="" fill="#000000" transform="translate(0,0)"/>
<path d="" fill="#000000" transform="translate(0,0)"/>
<path d="" fill="#000000" transform="translate(0,0)"/>
<path d="" fill="#000000" transform="translate(0,0)"/>
<path d="" fill="#000000" transform="translate(0,0)"/>
<path d="" fill="#000000" transform="translate(0,0)"/>
<path d="" fill="#000000" transform="translate(0,0)"/>
<path d="" fill="#000000" transform="translate(0,0)"/>
<path d="" fill="#000000" transform="translate(0,0)"/>
<path d="" fill="#000000" transform="translate(0,0)"/>
<path d="" fill="#000000" transform="translate(0,0)"/>
<path d="" fill="#000000" transform="translate(0,0)"/>
<path d="" fill="#000000" transform="translate(0,0)"/>
<path d="" fill="#000000" transform="translate(0,0)"/>
<path d="" fill="#000000" transform="translate(0,0)"/>
<path d="" fill="#000000" transform="translate(0,0)"/>
<path d="" fill="#000000" transform="translate(0,0)"/>
<path d="" fill="#000000" transform="translate(0,0)"/>
<path d="" fill="#000000" transform="translate(0,0)"/>
<path d="" fill="#000000" transform="translate(0,0)"/>
<path d="" fill="#000000" transform="translate(0,0)"/>
<path d="" fill="#000000" transform="translate(0,0)"/>
<path d="" fill="#000000" transform="translate(0,0)"/>
<path d="" fill="#000000" transform="translate(0,0)"/>
<path d="" fill="#000000" transform="translate(0,0)"/>
<path d="" fill="#000000" transform="translate(0,0)"/>
<path d="" fill="#000000" transform="translate(0,0)"/>
<path d="" fill="#000000" transform="translate(0,0)"/>
<path d="" fill="#000000" transform="translate(0,0)"/>
<path d="" fill="#000000" transform="translate(0,0)"/>
<path d="" fill="#000000" transform="translate(0,0)"/>
<path d="" fill="#000000" transform="translate(0,0)"/>
<path d="" fill="#000000" transform="translate(0,0)"/>
<path d="" fill="#000000" transform="translate(0,0)"/>
<path d="" fill="#000000" transform="translate(0,0)"/>
<path d="" fill="#000000" transform="translate(0,0)"/>
<path d="" fill="#000000" transform="translate(0,0)"/>
<path d="" fill="#000000" transform="translate(0,0)"/>
<path d="" fill="#000000" transform="translate(0,0)"/>
<path d="" fill="#000000" transform="translate(0,0)"/>
<path d="" fill="#000000" transform="translate(0,0)"/>
<path d="" fill="#000000" transform="translate(0,0)"/>
<path d="" fill="#000000" transform="translate(0,0)"/>
<path d="" fill="#000000" transform="translate(0,0)"/>
<path d="" fill="#000000" transform="translate(0,0)"/>
<path d="" fill="#000000" transform="translate(0,0)"/>
<path d="" fill="#000000" transform="translate(0,0)"/>
<path d="" fill="#000000" transform="translate(0,0)"/>
<path d="" fill="#000000" transform="translate(0,0)"/>
<path d="" fill="#000000" transform="translate(0,0)"/>
<path d="" fill="#000000" transform="translate(0,0)"/>
<path d="" fill="#000000" transform="translate(0,0)"/>
<path d="" fill="#000000" transform="translate(0,0)"/>
<path d="" fill="#000000" transform="translate(0,0)"/>
<path d="" fill="#000000" transform="translate(0,0)"/>
<path d="" fill="#000000" transform="translate(0,0)"/>
<path d="" fill="#000000" transform="translate(0,0)"/>
<path d="" fill="#000000" transform="translate(0,0)"/>
<path d="" fill="#000000" transform="translate(0,0)"/>
</svg>
